<svg width="142" height="32" viewBox="0 0 142 32" fill="none" xmlns="http://www.w3.org/2000/svg">
	<g clip-path="url(#clip0_1075_25539)">
		<path d="M53.0356 15.8598C53.0806 17.7898 53.1506 19.7198 53.1606 21.6498C53.1781 24.7373 50.8006 27.3848 47.7256 27.7098C45.9331 27.8998 44.3081 27.4523 42.9606 26.2198C42.6206 25.9098 42.3156 25.5173 42.1206 25.1023C41.2606 23.2573 40.3981 21.4098 39.6256 19.5273C38.2681 16.2148 36.9831 12.8723 35.6456 9.55229C35.1781 8.38979 34.0231 7.78229 32.8006 7.91479C31.7631 8.02729 30.8056 8.86229 30.5756 9.96479C30.5156 10.2473 30.4956 10.5423 30.5006 10.8323C30.5706 14.5023 30.6406 18.1698 30.7281 21.8398C30.7631 23.3273 31.6006 24.3398 32.9481 24.6023C34.3756 24.8798 35.8731 23.8148 36.0381 22.3898C36.0581 22.2148 36.0031 22.0148 35.9356 21.8473C34.6131 18.5573 33.2806 15.2698 31.9531 11.9823C31.5031 10.8648 32.0031 9.80979 33.1106 9.51729C33.9481 9.29479 34.7981 9.74979 35.1556 10.6323C35.8356 12.2998 36.5056 13.9723 37.1831 15.6423C37.8456 17.2823 38.4681 18.9373 39.1856 20.5523C39.6706 21.6423 39.6281 22.7073 39.2981 23.7923C38.4506 26.5748 35.7206 28.3273 32.8206 28.0948C30.3481 27.8948 27.8106 25.8873 27.3631 23.1148C27.2206 22.2348 27.2331 21.3273 27.2106 20.4298C27.1381 17.3423 27.0781 14.2573 27.0031 11.1723C26.9756 9.97979 27.1231 8.82479 27.6731 7.74729C28.8431 5.45229 31.3881 4.13479 33.9456 4.46729C35.6831 4.69229 37.0031 5.56479 38.1131 6.88229C38.7531 7.64229 38.9881 8.56229 39.3381 9.43729C41.0106 13.5998 42.6631 17.7698 44.3256 21.9348C44.4581 22.2673 44.6456 22.5773 44.7781 22.9098C45.3581 24.3698 47.4581 24.6948 48.6456 23.7173C49.3256 23.1573 49.6956 22.4548 49.6756 21.5548C49.5931 17.8073 49.5256 14.0598 49.4356 10.3123C49.4031 8.94979 48.6706 7.97729 47.4906 7.63479C45.9581 7.19229 44.3506 8.19979 44.1256 9.76479C44.0981 9.94729 44.1581 10.1598 44.2281 10.3398C45.6181 13.7948 47.0181 17.2473 48.4156 20.7023C48.8731 21.8348 48.3681 22.8873 47.2306 23.1773C46.4156 23.3848 45.5631 22.9198 45.2131 22.0598C44.5781 20.5073 43.9531 18.9498 43.3231 17.3948C42.5481 15.4748 41.8131 13.5398 40.9831 11.6448C40.4981 10.5398 40.5306 9.46979 40.8656 8.37229C41.6731 5.72729 44.1456 3.98979 46.9456 4.06979C50.2606 4.16479 52.8506 6.79229 52.9056 10.1048C52.9381 12.0248 52.9956 13.9423 53.0431 15.8598C53.0406 15.8598 53.0381 15.8598 53.0356 15.8598Z" fill="url(#paint0_linear_1075_25539)" />
		<path d="M106.459 23.7399C105.092 23.7399 103.789 23.7474 102.489 23.7274C102.377 23.7274 102.232 23.5724 102.162 23.4524C101.199 21.8474 100.249 20.2349 99.2944 18.6249C99.2444 18.5399 99.1895 18.4599 99.072 18.3824V23.7174H95.5645V4.25488H99.0519V17.5949C99.0769 17.6024 99.102 17.6099 99.127 17.6174C99.1845 17.5324 99.2469 17.4499 99.3019 17.3624C100.207 15.8799 101.112 14.3974 102.007 12.9074C102.122 12.7174 102.239 12.6274 102.477 12.6299C103.567 12.6449 104.657 12.6374 105.747 12.6374C105.842 12.6374 105.939 12.6374 106.087 12.6374C105.994 12.7899 105.937 12.8924 105.872 12.9924C104.852 14.5499 103.837 16.1099 102.809 17.6599C102.684 17.8499 102.684 17.9749 102.809 18.1649C103.974 19.9224 105.127 21.6874 106.284 23.4499C106.332 23.5224 106.377 23.5999 106.459 23.7399Z" fill="#2001F5" />
		<path d="M72.2797 27.9873V25.0298C72.6972 25.0298 73.0997 25.0373 73.4997 25.0298C74.4872 25.0098 75.2047 24.5923 75.6322 23.6673C75.8372 23.2223 75.8722 22.8598 75.6547 22.3873C74.2147 19.2798 72.8147 16.1548 71.3997 13.0323C71.3497 12.9223 71.3072 12.8098 71.2422 12.6498C71.3972 12.6498 71.5147 12.6498 71.6322 12.6498C72.6672 12.6498 73.7022 12.6573 74.7347 12.6448C74.9772 12.6423 75.0847 12.7173 75.1697 12.9448C75.9447 14.9723 76.7347 16.9923 77.5197 19.0173C77.5597 19.1198 77.6022 19.2198 77.6772 19.3973C77.9572 18.6248 78.2122 17.9198 78.4672 17.2148C78.9847 15.7848 79.4972 14.3523 80.0222 12.9248C80.0597 12.8198 80.1772 12.6673 80.2597 12.6648C81.4497 12.6473 82.6372 12.6523 83.8797 12.6523C83.7947 12.8523 83.7297 13.0123 83.6597 13.1723C82.0847 16.7348 80.5247 20.3023 78.9272 23.8548C78.6022 24.5748 78.1847 25.2623 77.7422 25.9198C76.8322 27.2773 75.5072 27.9173 73.8922 27.9848C73.3647 28.0073 72.8372 27.9873 72.2772 27.9873H72.2797Z" fill="#2001F5" />
		<path d="M94.2428 23.8298H90.7178C90.7128 23.7023 90.7003 23.5748 90.7003 23.4448C90.7003 21.5823 90.7028 19.7198 90.6953 17.8548C90.6953 17.5423 90.6753 17.2248 90.6053 16.9223C90.3928 16.0073 89.6828 15.4798 88.7403 15.4998C87.7678 15.5198 87.0878 16.0673 86.9003 16.9998C86.8553 17.2298 86.8328 17.4673 86.8328 17.6998C86.8278 19.6073 86.8303 21.5148 86.8303 23.4223C86.8303 23.5448 86.8303 23.6673 86.8303 23.8223H83.3278C83.3178 23.7573 83.3028 23.7023 83.3028 23.6498C83.3053 21.4723 83.2628 19.2948 83.3253 17.1198C83.3928 14.7173 84.9628 12.9598 87.3228 12.5148C88.6753 12.2598 90.0128 12.3098 91.2903 12.8473C93.0278 13.5773 94.0428 14.9123 94.1703 16.7773C94.2878 18.5198 94.2303 20.2748 94.2453 22.0248C94.2503 22.6173 94.2453 23.2123 94.2453 23.8298H94.2428Z" fill="#2001F5" />
		<path d="M65.513 12.6724C65.513 13.8549 65.513 14.9974 65.513 16.1424C65.513 17.0849 65.5155 18.0274 65.513 18.9699C65.503 21.7949 63.743 23.7324 60.933 24.0324C59.4905 24.1874 58.1055 24.0324 56.8405 23.2824C55.408 22.4299 54.6555 21.1174 54.603 19.4849C54.533 17.2874 54.5755 15.0874 54.573 12.8899C54.573 12.8249 54.588 12.7599 54.598 12.6749H58.0955C58.0955 12.8099 58.0955 12.9299 58.0955 13.0499C58.0955 14.9574 58.093 16.8649 58.1005 18.7724C58.1005 19.0399 58.1255 19.3124 58.188 19.5699C58.4205 20.5099 59.218 21.0624 60.2005 20.9849C61.163 20.9099 61.843 20.2474 61.9405 19.2849C61.968 19.0174 61.9805 18.7474 61.983 18.4799C61.9855 16.6849 61.983 14.8899 61.983 13.0949C61.983 12.9624 61.983 12.8299 61.983 12.6774H65.513V12.6724Z" fill="#2001F5" />
		<path d="M115.644 15.7025C115.514 15.71 115.414 15.72 115.317 15.72C114.439 15.72 113.564 15.7175 112.687 15.725C112.484 15.725 112.377 15.6899 112.309 15.4599C112.132 14.87 111.572 14.5925 110.779 14.6474C110.169 14.6899 109.789 14.9825 109.677 15.4999C109.577 15.9625 109.757 16.35 110.267 16.5325C110.792 16.7175 111.347 16.8175 111.889 16.9499C112.519 17.1024 113.162 17.215 113.782 17.4025C116.459 18.215 116.259 21.33 115.072 22.615C114.354 23.39 113.452 23.8049 112.434 23.9799C111.119 24.2074 109.814 24.1849 108.559 23.6799C107.107 23.0974 106.289 22.025 106.137 20.4249C106.234 20.4124 106.317 20.3925 106.399 20.3925C107.344 20.3925 108.287 20.3924 109.232 20.3874C109.422 20.3874 109.524 20.4174 109.582 20.6374C109.897 21.8449 111.622 21.8274 112.162 21.2249C112.614 20.7174 112.537 19.9825 111.902 19.7099C111.364 19.4774 110.769 19.3825 110.197 19.2375C109.622 19.0925 109.032 19.0024 108.469 18.8175C107.324 18.4399 106.514 17.7199 106.334 16.4674C106.132 15.0575 106.557 13.895 107.777 13.09C108.852 12.38 110.069 12.2175 111.322 12.265C112.452 12.3075 113.524 12.57 114.424 13.3075C115.172 13.9175 115.579 14.7099 115.649 15.6999L115.644 15.7025Z" fill="#2001F5" />
		<path d="M70.4842 23.6849H67.0117V4.30493H70.4842V23.6874V23.6849Z" fill="#2001F5" />
	</g>
	<defs>
		<linearGradient id="paint0_linear_1075_25539" x1="40.0806" y1="28.1123" x2="40.0806" y2="4.06729" gradientUnits="userSpaceOnUse">
			<stop stop-color="#F44EF3" />
			<stop offset="0.12" stop-color="#D241F3" />
			<stop offset="0.35" stop-color="#932AF3" />
			<stop offset="0.56" stop-color="#6118F4" />
			<stop offset="0.75" stop-color="#3D0BF4" />
			<stop offset="0.9" stop-color="#2703F4" />
			<stop offset="1" stop-color="#2001F5" />
		</linearGradient>
		<clipPath id="clip0_1075_25539">
			<rect width="88.9025" height="24.045" fill="white" transform="translate(27 4.06738)" />
		</clipPath>
	</defs>
</svg>
